<svg width="199" height="111" viewBox="0 0 199 111" fill="none" xmlns="http://www.w3.org/2000/svg">
<rect x="4" y="4" width="190.537" height="103" rx="8" fill="#67E8F9" stroke="#06B6D4" stroke-width="8"/>
<rect x="99.2681" y="19.8537" width="74.9024" height="7.21951" rx="3.60976" fill="#06B6D4"/>
<rect x="99.2681" y="35.1951" width="72.1951" height="7.21951" rx="3.60976" fill="#06B6D4"/>
<rect x="99.2681" y="50.5366" width="79.4146" height="7.21951" rx="3.60976" fill="#06B6D4"/>
<rect x="99.2681" y="65.8781" width="59.561" height="7.21951" rx="3.60976" fill="#06B6D4"/>
<rect x="99.2681" y="84.8293" width="31.5854" height="7.21951" rx="3.60976" fill="#06B6D4"/>
<rect x="139.878" y="84.8293" width="34.2927" height="7.21951" rx="3.60976" fill="#06B6D4"/>
<circle cx="48.5937" cy="36.9681" r="14.4072" fill="#06B6D4"/>
<path d="M74.9026 75.6766C74.9026 87.368 74.9026 86.0688 48.2806 86.4537C21.6587 86.0688 21.6587 87.368 21.6587 75.6766C21.6587 63.9851 33.5777 54.5073 48.2806 54.5073C62.9835 54.5073 74.9026 63.9851 74.9026 75.6766Z" fill="#06B6D4"/>
</svg>
