<svg width="204" height="111" viewBox="0 0 204 111" fill="none" xmlns="http://www.w3.org/2000/svg">
<path d="M39.8679 75.0655C45.1002 70.8413 52.8933 74.5655 52.8932 81.2901L52.8932 99.2519C52.8932 103.67 49.3115 107.252 44.8932 107.252H22.6448C15.1004 107.252 11.7493 97.7664 17.6194 93.0273L39.8679 75.0655Z" fill="#22D3EE"/>
<rect x="26.915" y="22.8407" width="99.783" height="88.1593" rx="32" fill="#22D3EE"/>
<path fill-rule="evenodd" clip-rule="evenodd" d="M159.598 0C177.271 0 191.598 14.3269 191.598 32V56.1593C191.598 58.2313 191.401 60.2572 191.025 62.2195L200.893 70.1866C206.763 74.9257 203.412 84.4112 195.868 84.4112H174.639C170.155 86.8034 165.035 88.1593 159.598 88.1593H123.815C106.142 88.1593 91.8149 73.8325 91.8149 56.1593V32C91.8149 14.3269 106.142 0 123.815 0H159.598Z" fill="#89E7F6" fill-opacity="0.8"/>
</svg>
