<svg width="128" height="128" viewBox="0 0 128 128" fill="none" xmlns="http://www.w3.org/2000/svg">
<path d="M67 14H61V23C61 24.6569 62.3431 26 64 26V26C65.6569 26 67 24.6569 67 23V14Z" fill="#67E8F9"/>
<rect width="6" height="35" rx="3" transform="matrix(0.62932 0.777146 0.777146 -0.62932 42.8723 80.9161)" fill="#0891B2"/>
<rect width="6" height="21.9952" rx="3" transform="matrix(-0.777146 0.62932 0.62932 0.777146 60.158 46.3593)" fill="#0891B2"/>
<path d="M67 114H61V105C61 103.343 62.3431 102 64 102V102C65.6569 102 67 103.343 67 105V114Z" fill="#67E8F9"/>
<path d="M114 67V61H105C103.343 61 102 62.3431 102 64V64C102 65.6569 103.343 67 105 67H114Z" fill="#67E8F9"/>
<path d="M110 41.1962L107 36L100.938 39.5C99.5029 40.3284 99.0113 42.1632 99.8397 43.5981V43.5981C100.668 45.033 102.503 45.5246 103.938 44.6962L110 41.1962Z" fill="#67E8F9"/>
<path d="M92 22L86.8038 19L83.3038 25.0622C82.4754 26.4971 82.967 28.3318 84.4019 29.1603V29.1603C85.8368 29.9887 87.6716 29.4971 88.5 28.0622L92 22Z" fill="#67E8F9"/>
<path d="M18.304 41.1962L21.304 36L27.3661 39.5C28.801 40.3284 29.2926 42.1632 28.4642 43.5981V43.5981C27.6358 45.033 25.801 45.5246 24.3661 44.6962L18.304 41.1962Z" fill="#67E8F9"/>
<path d="M36.304 22L41.5001 19L45.0001 25.0622C45.8285 26.4971 45.3369 28.3318 43.902 29.1603V29.1603C42.4672 29.9887 40.6324 29.4971 39.804 28.0622L36.304 22Z" fill="#67E8F9"/>
<path d="M110 86.5L107 91.6962L100.938 88.1962C99.5029 87.3677 99.0113 85.533 99.8397 84.0981V84.0981C100.668 82.6632 102.503 82.1716 103.938 83L110 86.5Z" fill="#67E8F9"/>
<path d="M92 105.696L86.8038 108.696L83.3038 102.634C82.4754 101.199 82.967 99.3643 84.4019 98.5359V98.5359C85.8368 97.7075 87.6716 98.1991 88.5 99.634L92 105.696Z" fill="#67E8F9"/>
<path d="M18.304 86.5L21.304 91.6962L27.3661 88.1962C28.801 87.3677 29.2926 85.533 28.4642 84.0981V84.0981C27.6358 82.6632 25.801 82.1716 24.3661 83L18.304 86.5Z" fill="#67E8F9"/>
<path d="M36.304 105.696L41.5001 108.696L45.0001 102.634C45.8285 101.199 45.3369 99.3643 43.902 98.5359V98.5359C42.4672 97.7075 40.6324 98.1991 39.804 99.634L36.304 105.696Z" fill="#67E8F9"/>
<path d="M14 67V61H23C24.6569 61 26 62.3431 26 64V64C26 65.6569 24.6569 67 23 67H14Z" fill="#67E8F9"/>
<path d="M0 64C0 99.3462 28.6538 128 64 128C99.3462 128 128 99.3462 128 64C128 28.6538 99.3462 0 64 0C28.6538 0 0 28.6538 0 64ZM114.007 64C114.007 91.6179 91.6179 114.007 64 114.007C36.3821 114.007 13.9934 91.6179 13.9934 64C13.9934 36.3821 36.3821 13.9934 64 13.9934C91.6179 13.9934 114.007 36.3821 114.007 64Z" fill="#06B6D4"/>
</svg>
