<svg width="313" height="113" viewBox="0 0 313 113" fill="none" xmlns="http://www.w3.org/2000/svg">
<circle cx="80.5784" cy="87.4412" r="7.44118" fill="#06B6D4"/>
<path d="M94.1667 107.434C94.1667 113.472 94.1667 112.801 80.4167 113C66.6667 112.801 66.6667 113.472 66.6667 107.434C66.6667 101.395 72.8228 96.5 80.4167 96.5C88.0107 96.5 94.1667 101.395 94.1667 107.434Z" fill="#06B6D4"/>
<circle cx="40.5784" cy="87.4412" r="7.44118" fill="#0891B2"/>
<path d="M54.1667 107.434C54.1667 113.472 54.1667 112.801 40.4167 113C26.6667 112.801 26.6667 113.472 26.6667 107.434C26.6667 101.395 32.8228 96.5 40.4167 96.5C48.0107 96.5 54.1667 101.395 54.1667 107.434Z" fill="#0891B2"/>
<rect x="138" y="47.4286" width="52.8997" height="18.0952" rx="4" fill="#22D3EE"/>
<path d="M207.182 54.4436C208.174 55.2441 208.174 56.7559 207.182 57.5564L190.904 70.693C189.596 71.7486 187.648 70.8175 187.648 69.1366V42.8634C187.648 41.1825 189.596 40.2514 190.904 41.307L207.182 54.4436Z" fill="#22D3EE"/>
<path d="M22.7399 47.7906C25.2974 45.4066 29.4673 47.2203 29.4672 50.7166L29.4672 64.9868C29.4672 67.1959 27.6764 68.9868 25.4672 68.9868H10.1578C6.526 68.9868 4.77377 64.5371 7.43039 62.0608L22.7399 47.7906Z" fill="#22D3EE"/>
<rect x="14.9946" y="14.6917" width="55.5899" height="56.706" rx="16" fill="#22D3EE"/>
<path fill-rule="evenodd" clip-rule="evenodd" d="M90.7408 9C99.5773 9 106.741 16.1634 106.741 25V49.3188L114.305 56.3691C116.961 58.8454 115.209 63.2951 111.577 63.2951H99.1909C96.7387 64.8232 93.8428 65.706 90.7408 65.706H67.1509C58.3143 65.706 51.1509 58.5426 51.1509 49.706V25C51.1509 16.1634 58.3143 9 67.1509 9H90.7408Z" fill="#89E7F6" fill-opacity="0.8"/>
<path d="M234.362 37.233C233.756 28.0039 241.078 20.1849 250.327 20.1849H293.786C303.08 20.1849 310.418 28.0762 309.744 37.3454L305.33 98.0463C304.721 106.411 297.758 112.886 289.372 112.886H254.312C245.883 112.886 238.899 106.346 238.347 97.934L234.362 37.233Z" fill="#06B6D4"/>
<path d="M239.178 36.8225C238.798 31.0537 243.375 26.1656 249.156 26.1656H295.003C300.813 26.1656 305.399 31.099 304.977 36.893L300.601 96.8849C300.22 102.112 295.869 106.158 290.628 106.158H253.106C247.838 106.158 243.473 102.071 243.127 96.8145L239.178 36.8225Z" fill="#22D3EE"/>
<rect x="251.185" y="43.1989" width="5.23312" height="47.8457" rx="2.61656" transform="rotate(-5 251.185 43.1989)" fill="#06B6D4"/>
<rect x="269.737" y="42.8133" width="5.23312" height="47.8457" rx="2.61656" fill="#06B6D4"/>
<rect x="288.314" y="42.6125" width="5.23312" height="47.8457" rx="2.61656" transform="rotate(5 288.314 42.6125)" fill="#06B6D4"/>
<path d="M231 24.5874C231 17.6142 236.653 11.9614 243.626 11.9614H299.861C306.834 11.9614 312.487 17.6142 312.487 24.5874V24.5874C312.487 25.459 311.781 26.1656 310.909 26.1656H232.578C231.707 26.1656 231 25.459 231 24.5874V24.5874Z" fill="#06B6D4"/>
<path d="M254.923 11.9614C254.923 5.35531 260.278 0 266.884 0H275.108C281.714 0 287.069 5.35531 287.069 11.9614V11.9614H254.923V11.9614Z" fill="#06B6D4"/>
<path d="M260.156 11.9614C260.156 7.8326 263.503 4.48553 267.632 4.48553H274.36C278.489 4.48553 281.836 7.8326 281.836 11.9614V11.9614H260.156V11.9614Z" fill="white"/>
<path d="M236.233 21.0155C236.233 18.0795 238.613 15.6993 241.549 15.6993H301.938C304.874 15.6993 307.254 18.0795 307.254 21.0155V21.0155C307.254 21.3825 306.957 21.68 306.59 21.68H236.898C236.531 21.68 236.233 21.3825 236.233 21.0155V21.0155Z" fill="#22D3EE"/>
</svg>
