<svg width="173" height="30" viewBox="0 0 173 30" fill="none" xmlns="http://www.w3.org/2000/svg">
<path d="M105.895 23V6.2H112.243C113.411 6.2 114.419 6.404 115.267 6.812C116.123 7.212 116.783 7.784 117.247 8.528C117.719 9.272 117.955 10.156 117.955 11.18C117.955 12.012 117.775 12.748 117.415 13.388C117.063 14.028 116.567 14.556 115.927 14.972C115.287 15.38 114.547 15.656 113.707 15.8L118.771 23H115.519L110.875 16.22H108.583V23H105.895ZM108.583 13.988H111.799C112.887 13.988 113.731 13.756 114.331 13.292C114.939 12.828 115.243 12.164 115.243 11.3C115.243 10.412 114.971 9.72 114.427 9.224C113.891 8.728 113.079 8.48 111.991 8.48H108.583V13.988ZM126.896 23.36C125.656 23.36 124.548 23.076 123.572 22.508C122.604 21.932 121.844 21.168 121.292 20.216C120.74 19.256 120.464 18.204 120.464 17.06C120.464 16.212 120.62 15.412 120.932 14.66C121.252 13.9 121.7 13.228 122.276 12.644C122.86 12.06 123.544 11.6 124.328 11.264C125.112 10.928 125.972 10.76 126.908 10.76C128.148 10.76 129.252 11.048 130.22 11.624C131.196 12.192 131.96 12.956 132.512 13.916C133.064 14.868 133.34 15.916 133.34 17.06C133.34 17.9 133.18 18.7 132.86 19.46C132.548 20.22 132.104 20.892 131.528 21.476C130.952 22.06 130.272 22.52 129.488 22.856C128.704 23.192 127.84 23.36 126.896 23.36ZM126.896 21.02C127.632 21.02 128.284 20.86 128.852 20.54C129.428 20.212 129.88 19.752 130.208 19.16C130.536 18.568 130.7 17.868 130.7 17.06C130.7 16.252 130.536 15.552 130.208 14.96C129.88 14.36 129.428 13.9 128.852 13.58C128.284 13.26 127.632 13.1 126.896 13.1C126.16 13.1 125.504 13.26 124.928 13.58C124.36 13.9 123.912 14.36 123.584 14.96C123.264 15.552 123.104 16.252 123.104 17.06C123.104 17.868 123.268 18.568 123.596 19.16C123.924 19.752 124.372 20.212 124.94 20.54C125.516 20.86 126.168 21.02 126.896 21.02ZM141.521 23.36C140.281 23.36 139.173 23.076 138.197 22.508C137.229 21.932 136.469 21.168 135.917 20.216C135.365 19.256 135.089 18.204 135.089 17.06C135.089 16.212 135.245 15.412 135.557 14.66C135.877 13.9 136.325 13.228 136.901 12.644C137.485 12.06 138.169 11.6 138.953 11.264C139.737 10.928 140.597 10.76 141.533 10.76C142.773 10.76 143.877 11.048 144.845 11.624C145.821 12.192 146.585 12.956 147.137 13.916C147.689 14.868 147.965 15.916 147.965 17.06C147.965 17.9 147.805 18.7 147.485 19.46C147.173 20.22 146.729 20.892 146.153 21.476C145.577 22.06 144.897 22.52 144.113 22.856C143.329 23.192 142.465 23.36 141.521 23.36ZM141.521 21.02C142.257 21.02 142.909 20.86 143.477 20.54C144.053 20.212 144.505 19.752 144.833 19.16C145.161 18.568 145.325 17.868 145.325 17.06C145.325 16.252 145.161 15.552 144.833 14.96C144.505 14.36 144.053 13.9 143.477 13.58C142.909 13.26 142.257 13.1 141.521 13.1C140.785 13.1 140.129 13.26 139.553 13.58C138.985 13.9 138.537 14.36 138.209 14.96C137.889 15.552 137.729 16.252 137.729 17.06C137.729 17.868 137.893 18.568 138.221 19.16C138.549 19.752 138.997 20.212 139.565 20.54C140.141 20.86 140.793 21.02 141.521 21.02ZM150.617 23V11.12H153.257V12.752C153.577 12.288 153.945 11.912 154.361 11.624C154.777 11.328 155.217 11.112 155.681 10.976C156.145 10.832 156.617 10.76 157.097 10.76C158.065 10.76 158.869 10.972 159.509 11.396C160.157 11.82 160.613 12.364 160.877 13.028C161.469 12.164 162.157 11.572 162.941 11.252C163.725 10.924 164.513 10.76 165.305 10.76C166.401 10.76 167.277 10.976 167.933 11.408C168.589 11.84 169.061 12.396 169.349 13.076C169.645 13.756 169.793 14.456 169.793 15.176V23H167.153V15.944C167.153 15.12 166.925 14.456 166.469 13.952C166.021 13.44 165.365 13.184 164.501 13.184C163.933 13.184 163.425 13.308 162.977 13.556C162.529 13.804 162.173 14.148 161.909 14.588C161.653 15.02 161.525 15.52 161.525 16.088V23H158.885V15.944C158.885 15.12 158.661 14.456 158.213 13.952C157.765 13.44 157.105 13.184 156.233 13.184C155.673 13.184 155.165 13.308 154.709 13.556C154.261 13.804 153.905 14.148 153.641 14.588C153.385 15.02 153.257 15.52 153.257 16.088V23H150.617Z" fill="#0891B2"/>
<path d="M53.632 23.936L51.88 21.896C51.176 22.352 50.404 22.712 49.564 22.976C48.724 23.232 47.84 23.36 46.912 23.36C45.68 23.36 44.532 23.14 43.468 22.7C42.404 22.26 41.472 21.648 40.672 20.864C39.88 20.072 39.26 19.144 38.812 18.08C38.364 17.008 38.14 15.848 38.14 14.6C38.14 13.352 38.36 12.196 38.8 11.132C39.248 10.068 39.872 9.14 40.672 8.348C41.472 7.556 42.408 6.94 43.48 6.5C44.56 6.06 45.728 5.84 46.984 5.84C48.224 5.84 49.376 6.064 50.44 6.512C51.512 6.952 52.448 7.568 53.248 8.36C54.056 9.152 54.684 10.076 55.132 11.132C55.588 12.188 55.816 13.332 55.816 14.564C55.816 15.74 55.608 16.844 55.192 17.876C54.784 18.9 54.22 19.796 53.5 20.564L55.216 22.532L53.632 23.936ZM46.984 21.008C47.6 21.008 48.188 20.924 48.748 20.756C49.308 20.588 49.824 20.348 50.296 20.036L47.752 17.096L49.252 15.776L51.808 18.692C52.232 18.172 52.568 17.568 52.816 16.88C53.064 16.184 53.188 15.424 53.188 14.6C53.188 13.32 52.912 12.208 52.36 11.264C51.808 10.312 51.06 9.576 50.116 9.056C49.18 8.528 48.136 8.264 46.984 8.264C46.12 8.264 45.312 8.416 44.56 8.72C43.816 9.016 43.164 9.44 42.604 9.992C42.052 10.544 41.62 11.212 41.308 11.996C40.996 12.772 40.84 13.64 40.84 14.6C40.84 15.88 41.112 17 41.656 17.96C42.2 18.92 42.936 19.668 43.864 20.204C44.792 20.74 45.832 21.008 46.984 21.008ZM63.3653 23.36C62.3013 23.36 61.4213 23.148 60.7253 22.724C60.0373 22.292 59.5213 21.724 59.1773 21.02C58.8333 20.316 58.6613 19.548 58.6613 18.716V11.12H61.3013V18.224C61.3013 19.04 61.5413 19.696 62.0213 20.192C62.5093 20.68 63.1813 20.924 64.0373 20.924C64.5973 20.924 65.0973 20.8 65.5373 20.552C65.9773 20.296 66.3253 19.94 66.5813 19.484C66.8453 19.028 66.9773 18.5 66.9773 17.9V11.12H69.6173V23H67.2413V21.596C66.7773 22.156 66.2253 22.592 65.5853 22.904C64.9533 23.208 64.2133 23.36 63.3653 23.36ZM73.2891 23V11.12H75.9291V23H73.2891ZM74.6091 8.996C74.1371 8.996 73.7291 8.844 73.3851 8.54C73.0411 8.236 72.8691 7.836 72.8691 7.34C72.8691 6.852 73.0411 6.456 73.3851 6.152C73.7291 5.84 74.1371 5.684 74.6091 5.684C75.0811 5.684 75.4891 5.84 75.8331 6.152C76.1771 6.456 76.3491 6.852 76.3491 7.34C76.3491 7.836 76.1771 8.236 75.8331 8.54C75.4891 8.844 75.0811 8.996 74.6091 8.996ZM85.0418 23.36C83.7938 23.36 82.6818 23.088 81.7058 22.544C80.7298 21.992 79.9618 21.244 79.4018 20.3C78.8498 19.348 78.5738 18.268 78.5738 17.06C78.5738 16.148 78.7378 15.312 79.0658 14.552C79.3938 13.784 79.8578 13.116 80.4578 12.548C81.0578 11.98 81.7618 11.54 82.5698 11.228C83.3858 10.916 84.2698 10.76 85.2218 10.76C86.0218 10.76 86.7618 10.868 87.4418 11.084C88.1298 11.292 88.7618 11.616 89.3378 12.056L88.0658 14.072C87.6978 13.744 87.2738 13.5 86.7938 13.34C86.3218 13.18 85.8178 13.1 85.2818 13.1C84.4498 13.1 83.7338 13.256 83.1338 13.568C82.5338 13.88 82.0658 14.332 81.7298 14.924C81.4018 15.508 81.2378 16.216 81.2378 17.048C81.2378 18.288 81.5978 19.26 82.3178 19.964C83.0458 20.668 84.0338 21.02 85.2818 21.02C85.8738 21.02 86.4338 20.912 86.9618 20.696C87.4898 20.472 87.9298 20.18 88.2818 19.82L89.5418 21.824C88.9098 22.304 88.2058 22.68 87.4298 22.952C86.6538 23.224 85.8578 23.36 85.0418 23.36ZM91.9688 23V5.72H94.6088V15.944L99.2888 11.12H102.409L98.2088 15.668L103.021 23H99.8648L96.2888 17.384L94.6088 19.088V23H91.9688Z" fill="black"/>
<path d="M9.26294 16.8908C9.87926 16.2186 11 16.6547 11 17.5666L11 25.9927C11 26.545 10.5523 26.9927 9.99998 26.9927H2.2737C1.40352 26.9927 0.94855 25.9583 1.53665 25.3169L9.26294 16.8908Z" fill="#06B6D4"/>
<rect x="4.62451" y="3" width="24.375" height="24.08" rx="6" fill="#22D3EE"/>
<rect x="7.62451" width="24.375" height="24.08" rx="6" fill="#22D3EE" fill-opacity="0.3"/>
</svg>
