<svg width="267" height="102" viewBox="0 0 267 102" fill="none" xmlns="http://www.w3.org/2000/svg">
<circle cx="43" cy="23" r="23" fill="#06B6D4"/>
<path d="M85 84.7952C85 103.46 85 101.386 42.5 102C0 101.386 0 103.46 0 84.7952C0 66.1306 19.0279 51 42.5 51C65.9721 51 85 66.1306 85 84.7952Z" fill="#06B6D4"/>
<circle cx="225" cy="23" r="23" fill="#0891B2"/>
<path d="M267 84.7952C267 103.46 267 101.386 224.5 102C182 101.386 182 103.46 182 84.7952C182 66.1306 201.028 51 224.5 51C247.972 51 267 66.1306 267 84.7952Z" fill="#0891B2"/>
<rect x="103" y="27.2857" width="51.3291" height="16.2857" rx="4" fill="#22D3EE"/>
<path d="M169.861 33.3988C170.929 34.1988 170.929 35.8012 169.861 36.6011L154.372 48.1944C153.053 49.1814 151.174 48.2404 151.174 46.5932V23.4068C151.174 21.7595 153.053 20.8185 154.372 21.8056L169.861 33.3988Z" fill="#22D3EE"/>
<rect x="168" y="75.7143" width="49.8413" height="16.2857" rx="4" transform="rotate(-180 168 75.7143)" fill="#67E8F9"/>
<path d="M103.055 69.584C102.017 68.7834 102.017 67.2166 103.055 66.416L118.002 54.8945C119.317 53.8808 121.223 54.8182 121.223 56.4785V79.5215C121.223 81.1818 119.317 82.1192 118.002 81.1055L103.055 69.584Z" fill="#67E8F9"/>
</svg>
